<svg width="24" height="24" viewBox="0 0 24 24" fill="none" xmlns="http://www.w3.org/2000/svg">
<g opacity="0.9">
<path d="M4 9.3H20V6.6H18V4.8H20C21.1046 4.8 22 5.60589 22 6.6V19.2C22 20.1941 21.1046 21 20 21H4C2.89543 21 2 20.1941 2 19.2V6.6C2 5.60589 2.89543 4.8 4 4.8H6V6.6H4V9.3ZM4 11.1V19.2H20V11.1H4ZM9 6.6C9 7.09706 8.55228 7.5 8 7.5C7.44772 7.5 7 7.09706 7 6.6V3.9C7 3.40294 7.44772 3 8 3C8.55228 3 9 3.40294 9 3.9V6.6ZM17 6.6C17 7.09706 16.5523 7.5 16 7.5C15.4477 7.5 15 7.09706 15 6.6V3.9C15 3.40294 15.4477 3 16 3C16.5523 3 17 3.40294 17 3.9V6.6ZM10 4.8H14V6.6H10V4.8ZM9 12H11V13.8H9V12ZM13 12H15V13.8H13V12ZM17 12H19V13.8H17V12ZM5 15.6H7V17.4H5V15.6ZM9 15.6H11V17.4H9V15.6ZM13 15.6H15V17.4H13V15.6ZM17 15.6H19V17.4H17V15.6Z" fill="#EAECEE"/>
</g>
</svg>
