<svg width="24" height="212" viewBox="0 0 24 212" fill="none" xmlns="http://www.w3.org/2000/svg">
<path d="M8.27085 204.28C7.99085 203.92 7.64085 203.19 7.03085 202.28C6.68085 201.78 5.82085 200.83 5.56085 200.34C5.37342 200.042 5.31903 199.68 5.41085 199.34C5.56781 198.694 6.18041 198.266 6.84085 198.34C7.35165 198.443 7.82107 198.693 8.19085 199.06C8.44903 199.303 8.68652 199.567 8.90085 199.85C9.06085 200.05 9.10085 200.13 9.28085 200.36C9.46085 200.59 9.58085 200.82 9.49085 200.48C9.42085 199.98 9.30085 199.14 9.13085 198.39C9.00085 197.82 8.97085 197.73 8.85085 197.3C8.73085 196.87 8.66085 196.51 8.53085 196.02C8.41202 195.538 8.31855 195.051 8.25085 194.56C8.1248 193.932 8.2165 193.279 8.51085 192.71C8.86024 192.381 9.37278 192.295 9.81085 192.49C10.2514 192.815 10.58 193.27 10.7508 193.79C11.0129 194.43 11.1878 195.103 11.2708 195.79C11.4308 196.79 11.7408 198.25 11.7508 198.55C11.7508 198.18 11.6808 197.4 11.7508 197.05C11.8202 196.685 12.0738 196.382 12.4208 196.25C12.7187 196.159 13.0337 196.138 13.3408 196.19C13.6509 196.255 13.9255 196.433 14.1108 196.69C14.3425 197.273 14.4711 197.893 14.4908 198.52C14.5176 197.971 14.6117 197.426 14.7708 196.9C14.938 196.664 15.182 196.495 15.4608 196.42C15.7914 196.359 16.1303 196.359 16.4608 196.42C16.7319 196.511 16.9691 196.681 17.1408 196.91C17.3526 197.44 17.4808 198 17.5208 198.57C17.5208 198.71 17.5908 198.18 17.8108 197.83C17.9252 197.491 18.2119 197.238 18.563 197.167C18.9141 197.097 19.2762 197.218 19.513 197.487C19.7497 197.756 19.8252 198.131 19.7108 198.47C19.7108 199.12 19.7108 199.09 19.7108 199.53C19.7108 199.97 19.7108 200.36 19.7108 200.73C19.6744 201.315 19.5942 201.897 19.4708 202.47C19.2968 202.977 19.0546 203.458 18.7508 203.9C18.2653 204.44 17.8641 205.05 17.5608 205.71C17.4856 206.038 17.452 206.374 17.4608 206.71C17.4598 207.021 17.5002 207.33 17.5808 207.63C17.172 207.673 16.7597 207.673 16.3508 207.63C15.9608 207.57 15.4808 206.79 15.3508 206.55C15.2865 206.421 15.1549 206.34 15.0108 206.34C14.8668 206.34 14.7352 206.421 14.6708 206.55C14.4508 206.93 13.9608 207.62 13.6208 207.66C12.9508 207.74 11.5708 207.66 10.4808 207.66C10.4808 207.66 10.6608 206.66 10.2508 206.3C9.84085 205.94 9.42085 205.52 9.11085 205.24L8.27085 204.28Z" fill="white"/>
<path fill-rule="evenodd" clip-rule="evenodd" d="M8.27085 204.28C7.99085 203.92 7.64085 203.19 7.03085 202.28C6.68085 201.78 5.82085 200.83 5.56085 200.34C5.37342 200.042 5.31903 199.68 5.41085 199.34C5.56781 198.694 6.18041 198.266 6.84085 198.34C7.35165 198.443 7.82107 198.693 8.19085 199.06C8.44903 199.303 8.68652 199.567 8.90085 199.85C9.06085 200.05 9.10085 200.13 9.28085 200.36C9.46085 200.59 9.58085 200.82 9.49085 200.48C9.42085 199.98 9.30085 199.14 9.13085 198.39C9.00085 197.82 8.97085 197.73 8.85085 197.3C8.73085 196.87 8.66085 196.51 8.53085 196.02C8.41202 195.538 8.31855 195.051 8.25085 194.56C8.1248 193.932 8.2165 193.279 8.51085 192.71C8.86024 192.381 9.37278 192.295 9.81085 192.49C10.2514 192.815 10.58 193.27 10.7508 193.79C11.0129 194.43 11.1878 195.103 11.2708 195.79C11.4308 196.79 11.7408 198.25 11.7508 198.55C11.7508 198.18 11.6808 197.4 11.7508 197.05C11.8202 196.685 12.0738 196.382 12.4208 196.25C12.7187 196.159 13.0337 196.138 13.3408 196.19C13.6509 196.255 13.9255 196.433 14.1108 196.69C14.3425 197.273 14.4711 197.893 14.4908 198.52C14.5176 197.971 14.6117 197.426 14.7708 196.9C14.938 196.664 15.182 196.495 15.4608 196.42C15.7914 196.359 16.1303 196.359 16.4608 196.42C16.7319 196.511 16.9691 196.681 17.1408 196.91C17.3526 197.44 17.4808 198 17.5208 198.57C17.5208 198.71 17.5908 198.18 17.8108 197.83C17.9252 197.491 18.2119 197.238 18.563 197.167C18.9141 197.097 19.2762 197.218 19.513 197.487C19.7497 197.756 19.8252 198.131 19.7108 198.47C19.7108 199.12 19.7108 199.09 19.7108 199.53C19.7108 199.97 19.7108 200.36 19.7108 200.73C19.6744 201.315 19.5942 201.897 19.4708 202.47C19.2968 202.977 19.0546 203.458 18.7508 203.9C18.2653 204.44 17.8641 205.05 17.5608 205.71C17.4856 206.038 17.452 206.374 17.4608 206.71C17.4598 207.021 17.5002 207.33 17.5808 207.63C17.172 207.673 16.7597 207.673 16.3508 207.63C15.9608 207.57 15.4808 206.79 15.3508 206.55C15.2865 206.421 15.1549 206.34 15.0108 206.34C14.8668 206.34 14.7352 206.421 14.6708 206.55C14.4508 206.93 13.9608 207.62 13.6208 207.66C12.9508 207.74 11.5708 207.66 10.4808 207.66C10.4808 207.66 10.6608 206.66 10.2508 206.3C9.84085 205.94 9.42085 205.52 9.11085 205.24L8.27085 204.28Z" stroke="black" stroke-width="0.75" stroke-linecap="round" stroke-linejoin="round"/>
<path d="M16.75 204.826V201.374C16.75 201.167 16.5821 201 16.375 201C16.1679 201 16 201.167 16 201.374V204.826C16 205.033 16.1679 205.2 16.375 205.2C16.5821 205.2 16.75 205.033 16.75 204.826Z" fill="black"/>
<path d="M14.77 204.825L14.75 201.371C14.7488 201.165 14.5799 200.999 14.3728 201C14.1657 201.001 13.9988 201.169 14 201.375L14.02 204.829C14.0212 205.035 14.1901 205.201 14.3972 205.2C14.6043 205.199 14.7712 205.031 14.77 204.825Z" fill="black"/>
<path d="M12 201.379L12.02 204.825C12.0212 205.033 12.1901 205.201 12.3972 205.2C12.6043 205.199 12.7712 205.029 12.77 204.821L12.75 201.375C12.7488 201.167 12.5799 200.999 12.3728 201C12.1657 201.001 11.9988 201.171 12 201.379Z" fill="black"/>
</svg>
