<svg width="19" height="18" viewBox="0 0 19 18" fill="none" xmlns="http://www.w3.org/2000/svg">
<path d="M14 9.885V7.5C13.9989 6.43734 13.6218 5.40935 12.9355 4.59808C12.2491 3.78681 11.2978 3.24461 10.25 3.0675V2.25C10.25 2.05109 10.171 1.86032 10.0303 1.71967C9.88968 1.57902 9.69891 1.5 9.5 1.5C9.30109 1.5 9.11032 1.57902 8.96967 1.71967C8.82902 1.86032 8.75 2.05109 8.75 2.25V3.0675C7.7022 3.24461 6.75089 3.78681 6.06454 4.59808C5.37818 5.40935 5.00108 6.43734 5 7.5V9.885C4.56234 10.0397 4.18325 10.3261 3.9147 10.7047C3.64616 11.0833 3.5013 11.5358 3.5 12V13.5C3.5 13.6989 3.57902 13.8897 3.71967 14.0303C3.86032 14.171 4.05109 14.25 4.25 14.25H6.605C6.77771 14.8855 7.15475 15.4466 7.67795 15.8465C8.20114 16.2465 8.84142 16.4632 9.5 16.4632C10.1586 16.4632 10.7989 16.2465 11.3221 15.8465C11.8452 15.4466 12.2223 14.8855 12.395 14.25H14.75C14.9489 14.25 15.1397 14.171 15.2803 14.0303C15.421 13.8897 15.5 13.6989 15.5 13.5V12C15.4987 11.5358 15.3538 11.0833 15.0853 10.7047C14.8168 10.3261 14.4377 10.0397 14 9.885ZM6.5 7.5C6.5 6.70435 6.81607 5.94129 7.37868 5.37868C7.94129 4.81607 8.70435 4.5 9.5 4.5C10.2956 4.5 11.0587 4.81607 11.6213 5.37868C12.1839 5.94129 12.5 6.70435 12.5 7.5V9.75H6.5V7.5ZM9.5 15C9.23823 14.9984 8.98143 14.9284 8.75512 14.7968C8.52882 14.6652 8.34088 14.4767 8.21 14.25H10.79C10.6591 14.4767 10.4712 14.6652 10.2449 14.7968C10.0186 14.9284 9.76177 14.9984 9.5 15ZM14 12.75H5V12C5 11.8011 5.07902 11.6103 5.21967 11.4697C5.36032 11.329 5.55109 11.25 5.75 11.25H13.25C13.4489 11.25 13.6397 11.329 13.7803 11.4697C13.921 11.6103 14 11.8011 14 12V12.75Z" fill="white"/>
</svg>
