<svg width="18" height="18" viewBox="0 0 18 18" fill="none" xmlns="http://www.w3.org/2000/svg">
<path d="M5.24925 11.1227C5.38977 11.2624 5.57986 11.3408 5.778 11.3408C5.97613 11.3408 6.16622 11.2624 6.30675 11.1227L8.99925 8.46773L11.6542 11.1227C11.7948 11.2624 11.9849 11.3408 12.183 11.3408C12.3811 11.3408 12.5712 11.2624 12.7117 11.1227C12.782 11.053 12.8378 10.9701 12.8759 10.8787C12.914 10.7873 12.9336 10.6892 12.9336 10.5902C12.9336 10.4912 12.914 10.3932 12.8759 10.3018C12.8378 10.2104 12.782 10.1274 12.7117 10.0577L9.53175 6.87773C9.46202 6.80743 9.37907 6.75163 9.28768 6.71356C9.19628 6.67548 9.09825 6.65588 8.99925 6.65588C8.90024 6.65588 8.80221 6.67548 8.71081 6.71356C8.61942 6.75163 8.53647 6.80743 8.46675 6.87773L5.24925 10.0577C5.17895 10.1274 5.12315 10.2104 5.08508 10.3018C5.047 10.3932 5.0274 10.4912 5.0274 10.5902C5.0274 10.6892 5.047 10.7873 5.08508 10.8787C5.12315 10.9701 5.17895 11.053 5.24925 11.1227Z" fill="#6C6C6C"/>
</svg>
