<svg width="18" height="18" viewBox="0 0 18 18" fill="none" xmlns="http://www.w3.org/2000/svg">
<path d="M12.7508 6.87727C12.6102 6.73759 12.4201 6.65918 12.222 6.65918C12.0239 6.65918 11.8338 6.73759 11.6933 6.87727L9.00075 9.53227L6.34575 6.87727C6.20523 6.73759 6.01514 6.65918 5.817 6.65918C5.61887 6.65918 5.42878 6.73759 5.28825 6.87727C5.21796 6.947 5.16216 7.02995 5.12409 7.12134C5.08601 7.21274 5.06641 7.31077 5.06641 7.40977C5.06641 7.50878 5.08601 7.60681 5.12409 7.69821C5.16216 7.7896 5.21796 7.87255 5.28825 7.94227L8.46825 11.1223C8.53798 11.1926 8.62093 11.2484 8.71232 11.2864C8.80372 11.3245 8.90175 11.3441 9.00075 11.3441C9.09976 11.3441 9.19779 11.3245 9.28919 11.2864C9.38058 11.2484 9.46353 11.1926 9.53325 11.1223L12.7508 7.94227C12.8211 7.87255 12.8768 7.7896 12.9149 7.69821C12.953 7.60681 12.9726 7.50878 12.9726 7.40977C12.9726 7.31077 12.953 7.21274 12.9149 7.12134C12.8768 7.02995 12.8211 6.947 12.7508 6.87727Z" fill="black"/>
</svg>
