<svg width="24" height="25" viewBox="0 0 24 25" fill="none" xmlns="http://www.w3.org/2000/svg">
<path d="M14.8299 11.7902L10.5899 7.55019C10.497 7.45646 10.3864 7.38207 10.2645 7.3313C10.1427 7.28053 10.012 7.25439 9.87994 7.25439C9.74793 7.25439 9.61723 7.28053 9.49537 7.3313C9.37351 7.38207 9.26291 7.45646 9.16994 7.55019C8.98369 7.73756 8.87915 7.99101 8.87915 8.25519C8.87915 8.51938 8.98369 8.77283 9.16994 8.96019L12.7099 12.5002L9.16994 16.0402C8.98369 16.2276 8.87915 16.481 8.87915 16.7452C8.87915 17.0094 8.98369 17.2628 9.16994 17.4502C9.26338 17.5429 9.3742 17.6162 9.49604 17.666C9.61787 17.7157 9.74834 17.741 9.87994 17.7402C10.0115 17.741 10.142 17.7157 10.2638 17.666C10.3857 17.6162 10.4965 17.5429 10.5899 17.4502L14.8299 13.2102C14.9237 13.1172 14.9981 13.0066 15.0488 12.8848C15.0996 12.7629 15.1257 12.6322 15.1257 12.5002C15.1257 12.3682 15.0996 12.2375 15.0488 12.1156C14.9981 11.9938 14.9237 11.8832 14.8299 11.7902Z" fill="#DCDCDC"/>
</svg>
