<svg width="19" height="18" viewBox="0 0 19 18" fill="none" xmlns="http://www.w3.org/2000/svg">
<path d="M13.2508 6.87727C13.1102 6.73759 12.9201 6.65918 12.722 6.65918C12.5239 6.65918 12.3338 6.73759 12.1933 6.87727L9.50075 9.53227L6.84575 6.87727C6.70523 6.73759 6.51514 6.65918 6.317 6.65918C6.11887 6.65918 5.92878 6.73759 5.78825 6.87727C5.71796 6.947 5.66216 7.02995 5.62409 7.12134C5.58601 7.21274 5.56641 7.31077 5.56641 7.40977C5.56641 7.50878 5.58601 7.60681 5.62409 7.69821C5.66216 7.7896 5.71796 7.87255 5.78825 7.94227L8.96825 11.1223C9.03798 11.1926 9.12093 11.2484 9.21232 11.2864C9.30372 11.3245 9.40175 11.3441 9.50075 11.3441C9.59976 11.3441 9.69779 11.3245 9.78919 11.2864C9.88058 11.2484 9.96353 11.1926 10.0333 11.1223L13.2508 7.94227C13.3211 7.87255 13.3768 7.7896 13.4149 7.69821C13.453 7.60681 13.4726 7.50878 13.4726 7.40977C13.4726 7.31077 13.453 7.21274 13.4149 7.12134C13.3768 7.02995 13.3211 6.947 13.2508 6.87727Z" fill="black"/>
</svg>
