<svg width="264" height="40" viewBox="0 0 264 40" fill="none" xmlns="http://www.w3.org/2000/svg">
<path opacity="0.16" d="M12.8 0C8.31958 0 6.07937 0 4.36808 0.871948C2.86278 1.63893 1.63893 2.86278 0.871948 4.36808C0 6.07937 0 8.31958 0 12.8V27.2C0 31.6804 0 33.9206 0.871948 35.6319C1.63893 37.1372 2.86278 38.3611 4.36808 39.1281C6.07937 40 8.31958 40 12.8 40H251.2C255.68 40 257.921 40 259.632 39.1281C261.137 38.3611 262.361 37.1372 263.128 35.6319C264 33.9206 264 31.6804 264 27.2V12.8C264 8.31958 264 6.07937 263.128 4.36808C262.361 2.86278 261.137 1.63893 259.632 0.871948C257.921 0 255.68 0 251.2 0H12.8Z" fill="#8E90A6"/>
</svg>
