<svg width="40" height="40" viewBox="0 0 40 40" fill="none" xmlns="http://www.w3.org/2000/svg">
<path d="M40 20C40 8.9543 31.0457 0 20 0C8.9543 0 0 8.9543 0 20C0 31.0457 8.9543 40 20 40C31.0457 40 40 31.0457 40 20Z" fill="#77B3D4"/>
<g opacity="0.2">
<path d="M21.1875 9.06233L9.8125 17.9373C8.375 19.0623 8.375 20.8748 9.8125 21.9998L21.1875 30.9373C22.625 32.0623 23.75 31.5623 23.75 29.8748V24.9998H31.25C32.625 24.9998 33.75 23.8748 33.75 22.4998V17.4998C33.75 16.1248 32.625 14.9998 31.25 14.9998H23.75V10.1248C23.75 8.37483 22.5625 7.93733 21.1875 9.06233Z" fill="#231F20"/>
</g>
<path d="M30 15C31.375 15 32.5 16.125 32.5 17.5V22.5C32.5 23.875 31.375 25 30 25H15C13.625 25 12.5 23.875 12.5 22.5V17.5C12.5 16.125 13.625 15 15 15L30 15Z" fill="white"/>
<path d="M22.5 29.8748C22.5 31.5623 21.3125 32.0623 19.9375 30.9373L8.625 21.9998C7.1875 20.8748 7.1875 19.0623 8.625 17.9373L19.9375 8.99983C21.375 7.87483 22.5 8.37483 22.5 10.0623V29.8748Z" fill="white"/>
</svg>
