<svg width="40" height="40" viewBox="0 0 40 40" fill="none" xmlns="http://www.w3.org/2000/svg">
<path d="M40 20C40 8.9543 31.0457 0 20 0C8.9543 0 0 8.9543 0 20C0 31.0457 8.9543 40 20 40C31.0457 40 40 31.0457 40 20Z" fill="#77B3D4"/>
<g opacity="0.2">
<path d="M18.75 10.1248V14.9998H11.25C9.875 14.9998 8.75 16.1248 8.75 17.4998V22.4998C8.75 23.8748 9.875 24.9998 11.25 24.9998H18.75V29.8748C18.75 31.5623 19.9375 32.0623 21.3125 30.9373L32.625 21.9998C34.0625 20.8748 34.0625 19.0623 32.625 17.9373L21.3125 8.99983C19.9375 7.93733 18.75 8.37483 18.75 10.1248Z" fill="#231F20"/>
</g>
<path d="M10 25C8.625 25 7.5 23.875 7.5 22.5L7.5 17.5C7.5 16.125 8.625 15 10 15L25 15C26.375 15 27.5 16.125 27.5 17.5V22.5C27.5 23.875 26.375 25 25 25H10Z" fill="white"/>
<path d="M17.5 10.1248C17.5 8.43733 18.6875 7.93733 20.0625 9.06233L31.4375 17.9373C32.875 19.0623 32.875 20.8748 31.4375 21.9998L20.0625 30.9373C18.625 32.0623 17.5 31.5623 17.5 29.8748V10.1248Z" fill="white"/>
</svg>
