<svg width="22" height="18" viewBox="0 0 22 18" fill="none" xmlns="http://www.w3.org/2000/svg">
<path d="M18.7184 7.63478L11.6509 1.72478C11.5657 1.65448 11.4643 1.59869 11.3526 1.56061C11.2409 1.52253 11.1211 1.50293 11.0001 1.50293C10.8791 1.50293 10.7593 1.52253 10.6476 1.56061C10.5359 1.59869 10.4345 1.65448 10.3493 1.72478L3.28177 7.64228C3.11076 7.78333 2.97569 7.95077 2.88442 8.13488C2.79315 8.319 2.7475 8.51611 2.75011 8.71478V14.9998C2.7494 15.3837 2.92865 15.7533 3.25095 16.0323C3.57325 16.3114 4.01406 16.4787 4.48261 16.4998H17.5176C17.9861 16.4787 18.427 16.3114 18.7493 16.0323C19.0716 15.7533 19.2508 15.3837 19.2501 14.9998V8.71478C19.2508 8.31198 19.0602 7.92472 18.7184 7.63478ZM9.16677 14.9998V10.4998H12.8334V14.9998H9.16677ZM17.4168 14.9998H14.6668V9.74978C14.6668 9.55087 14.5702 9.3601 14.3983 9.21945C14.2264 9.0788 13.9932 8.99978 13.7501 8.99978H8.25011C8.00699 8.99978 7.77383 9.0788 7.60192 9.21945C7.43002 9.3601 7.33344 9.55087 7.33344 9.74978V14.9998H4.58344V8.68478L11.0001 3.32228L17.4168 8.71478V14.9998Z" fill="black"/>
</svg>
