<svg width="25" height="25" viewBox="0 0 25 25" fill="none" xmlns="http://www.w3.org/2000/svg">
<g opacity="0.9" clip-path="url(#clip0_136_408)">
<path d="M5.20488 20.4573L5.2049 20.4573L6.45788 19.288V25.9828H4.92157V21.0788C4.92157 21.0474 4.93854 20.9276 5.01222 20.7616C5.08489 20.5978 5.16677 20.4928 5.20488 20.4573Z" fill="#6E6EF7" stroke="#7879F1" stroke-width="2.1986"/>
<path d="M21.3278 15.3915C21.3278 15.36 21.3448 15.2402 21.4187 15.0737C21.4914 14.9099 21.5734 14.8045 21.6119 14.7683C21.612 14.7683 21.6121 14.7682 21.6121 14.7681L22.8641 13.5986V25.9833H21.3278V15.3915Z" fill="#A8B0B9" stroke="#7879F1" stroke-width="2.1986"/>
<path d="M16.2538 19.7667L17.3944 18.7032V25.9826H15.8581V20.4958C15.8581 20.3866 15.8797 20.2498 15.9165 20.1326C15.9266 20.1002 15.9362 20.0749 15.9439 20.0568C16.0217 19.984 16.0913 19.919 16.1447 19.8689L16.2248 19.7939L16.2467 19.7734L16.2524 19.7681L16.2538 19.7667ZM15.9604 20.0224C15.9604 20.0225 15.9596 20.0239 15.958 20.0266C15.9595 20.0237 15.9604 20.0224 15.9604 20.0224Z" fill="#A8B0B9" stroke="#7879F1" stroke-width="2.1986"/>
<path d="M10.3903 25.9835V19.1314L11.0756 19.7702L11.077 19.7715L11.6773 20.3292L11.6777 20.3296C11.6991 20.3495 11.7722 20.439 11.8406 20.5979C11.9086 20.7556 11.9266 20.8763 11.9266 20.9165V25.9835H10.3903Z" fill="#A8B0B9" stroke="#7879F1" stroke-width="2.1986"/>
<path d="M0.505501 24.8456L0.505528 24.8456L0.986545 24.396V25.9842H-0.71236C-0.70832 25.9802 -0.704347 25.9763 -0.70045 25.9727C-0.700387 25.9726 -0.700324 25.9726 -0.700261 25.9725L0.505501 24.8456Z" fill="#A8B0B9" stroke="#7879F1" stroke-width="2.1986"/>
<path d="M20.1059 4.17845L20.7279 3.64426L20.3932 2.89574L19.6363 1.20288L23.4612 2.0548L22.3166 7.19414L22.0415 6.57999L21.4382 5.23259L20.3202 6.19685L12.2092 13.1931L11.1605 10.853L10.5568 9.50598L9.43917 10.4703L4.65234 14.6007L4.65203 14.601C4.45768 14.7688 4.33757 14.7524 4.30988 14.7462C4.28219 14.7401 4.16694 14.7041 4.06224 14.4714C4.06194 14.4707 4.06164 14.4701 4.06134 14.4694L4.03551 14.4109L4.03335 14.406C3.92238 14.1581 3.88671 13.8074 3.96981 13.434C4.05291 13.0606 4.23395 12.758 4.43977 12.5804L4.4398 12.5804L11.1663 6.7754L12.2144 9.1164L12.818 10.4645L13.936 9.49935L19.0123 5.11759L19.0144 5.11577L20.1059 4.17845ZM23.4596 1.95684C23.4596 1.9569 23.4597 1.95695 23.4597 1.95702L23.4596 1.95684Z" fill="#A8B0B9" stroke="#7879F1" stroke-width="2.1986"/>
</g>
<defs>
<clipPath id="clip0_136_408">
<rect width="25" height="25" fill="white"/>
</clipPath>
</defs>
</svg>
