<svg width="24" height="24" viewBox="0 0 24 24" fill="none" xmlns="http://www.w3.org/2000/svg">
<path d="M20.42 10.3598L12.7101 3.26627C12.6171 3.1819 12.5065 3.11493 12.3846 3.06923C12.2628 3.02353 12.1321 3 12.0001 3C11.868 3 11.7373 3.02353 11.6155 3.06923C11.4936 3.11493 11.383 3.1819 11.2901 3.26627L3.58011 10.3688C3.39355 10.5381 3.24621 10.739 3.14664 10.96C3.04708 11.181 2.99727 11.4176 3.00012 11.656V19.1996C2.99934 19.6604 3.19489 20.104 3.54649 20.4389C3.89809 20.7738 4.37897 20.9747 4.8901 21H19.11C19.6211 20.9747 20.102 20.7738 20.4536 20.4389C20.8052 20.104 21.0008 19.6604 21 19.1996V11.656C21.0008 11.1726 20.7928 10.7078 20.42 10.3598ZM10.0001 19.1996V13.7985H14V19.1996H10.0001ZM19 19.1996H16V12.8983C16 12.6596 15.8947 12.4306 15.7071 12.2618C15.5196 12.0929 15.2653 11.9981 15 11.9981H9.00008C8.73486 11.9981 8.48051 12.0929 8.29297 12.2618C8.10544 12.4306 8.00008 12.6596 8.00008 12.8983V19.1996H5.0001V11.62L12.0001 5.18368L19 11.656V19.1996Z" fill="#A8B0B9"/>
</svg>
