<svg width="24" height="24" viewBox="0 0 24 24" fill="none" xmlns="http://www.w3.org/2000/svg">
<path d="M13.2595 3.00007C8.16954 2.86007 3.99954 6.95007 3.99954 12.0001H2.20954C1.75954 12.0001 1.53954 12.5401 1.85954 12.8501L4.64954 15.6501C4.84954 15.8501 5.15954 15.8501 5.35954 15.6501L8.14954 12.8501C8.45954 12.5401 8.23954 12.0001 7.78954 12.0001H5.99954C5.99954 8.10007 9.17954 4.95007 13.0995 5.00007C16.8195 5.05007 19.9495 8.18007 19.9995 11.9001C20.0495 15.8101 16.8995 19.0001 12.9995 19.0001C11.3895 19.0001 9.89954 18.4501 8.71954 17.5201C8.31954 17.2101 7.75954 17.2401 7.39954 17.6001C6.97954 18.0201 7.00954 18.7301 7.47954 19.0901C8.99954 20.2901 10.9095 21.0001 12.9995 21.0001C18.0495 21.0001 22.1395 16.8301 21.9995 11.7401C21.8695 7.05007 17.9495 3.13007 13.2595 3.00007ZM12.7495 8.00007C12.3395 8.00007 11.9995 8.34007 11.9995 8.75007V12.4301C11.9995 12.7801 12.1895 13.1101 12.4895 13.2901L15.6095 15.1401C15.9695 15.3501 16.4295 15.2301 16.6395 14.8801C16.8495 14.5201 16.7295 14.0601 16.3795 13.8501L13.4995 12.1401V8.74007C13.4995 8.34007 13.1595 8.00007 12.7495 8.00007Z" fill="#A8B0B9"/>
</svg>
