<svg width="24" height="24" viewBox="0 0 24 24" fill="none" xmlns="http://www.w3.org/2000/svg">
<path d="M16.8505 17.1502L18.2905 15.7102L13.4105 10.8302L10.1205 14.1202C9.73047 14.5102 9.10047 14.5102 8.71047 14.1202L2.71047 8.11021C2.32047 7.72021 2.32047 7.09021 2.71047 6.70021C3.10047 6.31021 3.73047 6.31021 4.12047 6.70021L9.41047 12.0002L12.7005 8.71022C13.0905 8.32022 13.7205 8.32022 14.1105 8.71022L19.7005 14.2902L21.1405 12.8502C21.4505 12.5402 21.9905 12.7602 21.9905 13.2002V17.4902C21.9905 17.7702 21.7705 17.9902 21.4905 17.9902H17.2005C16.7605 18.0002 16.5405 17.4602 16.8505 17.1502Z" fill="#A8B0B9"/>
</svg>
