<svg width="24" height="24" viewBox="0 0 24 24" fill="none" xmlns="http://www.w3.org/2000/svg">
<g clip-path="url(#clip0_154_188)">
<g opacity="0.3">
<path d="M3.27627 18.8678C2.94043 19.1812 2.66895 19.7936 2.66895 20.236V25.9992H6.25446V16.8903C6.25446 16.4478 5.98298 16.342 5.64714 16.6554L3.27627 18.8678Z" fill="#A8B0B9"/>
<path d="M19.0263 13.4071C18.6913 13.7204 18.4189 14.3329 18.4189 14.7762V25.9997H22.0045V11.4264C22.0045 10.9839 21.733 10.8789 21.3971 11.1923L19.0263 13.4071Z" fill="#A8B0B9"/>
<path d="M24.2742 8.50299C23.9383 8.81558 23.666 9.42796 23.666 9.87042V25.9995H26.9998V6.76527C26.9998 6.3228 26.7275 6.21699 26.3916 6.53038L24.2742 8.50299Z" fill="#A8B0B9"/>
<path d="M13.8817 18.2059C13.8817 18.2059 13.7219 18.3558 13.5244 18.5402C13.3278 18.7246 13.168 19.2335 13.168 19.676V25.9987H16.7535V16.3302C16.7535 15.8877 16.4812 15.7819 16.1453 16.0953L13.8817 18.2059Z" fill="#A8B0B9"/>
<path d="M8.52712 16.5066C8.19128 16.194 7.91895 16.299 7.91895 16.7415V25.9996H11.5045V20.08C11.5045 19.6375 11.2467 19.0387 10.9281 18.743L10.3517 18.2075L8.52712 16.5066Z" fill="#A8B0B9"/>
<path d="M-1.23561 23.0808L-2.39352 24.163C-2.72852 24.4764 -3 25.0143 -3 25.3654V26.0002H1.0021V21.7911C1.0021 21.3486 0.730613 21.2436 0.394772 21.557L-1.23561 23.0808Z" fill="#A8B0B9"/>
<path d="M19.5674 9.8089C19.6746 10.0491 19.8145 10.0072 19.8793 9.71623L21.5571 2.18362C21.6772 1.64431 21.3977 1.08631 20.9986 0.997407L15.4228 -0.244462C15.2062 -0.292718 15.1171 -0.137131 15.2247 0.103149L16.6142 3.21072L15.5643 4.1123L10.6891 8.32054L9.29818 5.21381C9.19063 4.97353 8.94242 4.9188 8.74318 5.0902L1.57279 11.2783C0.776197 11.9657 0.479171 13.3011 0.908863 14.261L0.935719 14.3218C1.3654 15.2818 2.35959 15.5032 3.15575 14.8157L7.75111 10.8506L9.14249 13.9552C9.25015 14.195 9.49863 14.2503 9.69787 14.0789L18.1968 6.74814L19.5674 9.8089Z" fill="#A8B0B9"/>
</g>
</g>
<defs>
<clipPath id="clip0_154_188">
<rect width="24" height="24" fill="white"/>
</clipPath>
</defs>
</svg>
