<svg width="34" height="24" viewBox="0 0 34 24" fill="none" xmlns="http://www.w3.org/2000/svg">
<g clip-path="url(#clip0_154_176)">
<path d="M4.27627 18.8673C3.94043 19.1807 3.66895 19.7931 3.66895 20.2355V25.9988H7.25446V16.8898C7.25446 16.4473 6.98298 16.3415 6.64714 16.6549L4.27627 18.8673Z" fill="#A8B0B9"/>
<path d="M20.0263 13.4071C19.6913 13.7204 19.4189 14.3329 19.4189 14.7762V25.9997H23.0045V11.4264C23.0045 10.9839 22.733 10.8789 22.3971 11.1923L20.0263 13.4071Z" fill="#A8B0B9"/>
<path d="M25.2742 8.5025C24.9383 8.81509 24.666 9.42747 24.666 9.86993V25.999H27.9998V6.76478C27.9998 6.32231 27.7275 6.2165 27.3916 6.52989L25.2742 8.5025Z" fill="#A8B0B9"/>
<path d="M14.8817 18.2059C14.8817 18.2059 14.7219 18.3558 14.5244 18.5402C14.3278 18.7246 14.168 19.2335 14.168 19.676V25.9987H17.7535V16.3302C17.7535 15.8877 17.4812 15.7819 17.1453 16.0953L14.8817 18.2059Z" fill="#A8B0B9"/>
<path d="M9.52712 16.5061C9.19128 16.1935 8.91895 16.2985 8.91895 16.741V25.9991H12.5045V20.0795C12.5045 19.637 12.2467 19.0382 11.9281 18.7425L11.3517 18.207L9.52712 16.5061Z" fill="#A8B0B9"/>
<path d="M-0.235615 23.0804L-1.39352 24.1625C-1.72852 24.4759 -2 25.0138 -2 25.3649V25.9997H2.0021V21.7906C2.0021 21.3482 1.73061 21.2431 1.39477 21.5565L-0.235615 23.0804Z" fill="#A8B0B9"/>
<path d="M21.5674 9.8089C21.6746 10.0491 21.8145 10.0072 21.8793 9.71623L23.5571 2.18362C23.6772 1.64431 23.3977 1.08631 22.9986 0.997407L17.4228 -0.244462C17.2062 -0.292718 17.1171 -0.137131 17.2247 0.103149L18.6142 3.21072L17.5643 4.1123L12.6891 8.32054L11.2982 5.21381C11.1906 4.97353 10.9424 4.9188 10.7432 5.0902L3.57279 11.2783C2.7762 11.9657 2.47917 13.3011 2.90886 14.261L2.93572 14.3218C3.3654 15.2818 4.35959 15.5032 5.15575 14.8157L9.75111 10.8506L11.1425 13.9552C11.2502 14.195 11.4986 14.2503 11.6979 14.0789L20.1968 6.74814L21.5674 9.8089Z" fill="#A8B0B9"/>
</g>
<defs>
<clipPath id="clip0_154_176">
<rect width="34" height="24" fill="white"/>
</clipPath>
</defs>
</svg>
