<svg width="24" height="24" viewBox="0 0 24 24" fill="none" xmlns="http://www.w3.org/2000/svg">
<path d="M11.9996 5.82973L14.4596 8.28973C14.8496 8.67973 15.4796 8.67973 15.8696 8.28973C16.2596 7.89973 16.2596 7.26973 15.8696 6.87973L12.6996 3.69973C12.3096 3.30973 11.6796 3.30973 11.2896 3.69973L8.11965 6.87973C7.72965 7.26973 7.72965 7.89973 8.11965 8.28973C8.50965 8.67973 9.13965 8.67973 9.52965 8.28973L11.9996 5.82973ZM11.9996 18.1697L9.53965 15.7097C9.14965 15.3197 8.51965 15.3197 8.12965 15.7097C7.73965 16.0997 7.73965 16.7297 8.12965 17.1197L11.2996 20.2997C11.6896 20.6897 12.3196 20.6897 12.7096 20.2997L15.8796 17.1297C16.2696 16.7397 16.2696 16.1097 15.8796 15.7197C15.4896 15.3297 14.8596 15.3297 14.4696 15.7197L11.9996 18.1697Z" fill="#A8B0B9"/>
</svg>
