<svg width="24" height="24" viewBox="0 0 24 24" fill="none" xmlns="http://www.w3.org/2000/svg">
<path d="M8.11965 19.2997C8.50965 19.6897 9.13965 19.6897 9.52965 19.2997L11.9996 16.8297L14.4696 19.2997C14.8596 19.6897 15.4896 19.6897 15.8796 19.2997C16.2696 18.9097 16.2696 18.2797 15.8796 17.8897L12.7096 14.7197C12.3196 14.3297 11.6896 14.3297 11.2996 14.7197L8.12965 17.8897C7.72965 18.2697 7.72965 18.9097 8.11965 19.2997ZM15.8796 4.69973C15.4896 4.30973 14.8596 4.30973 14.4696 4.69973L11.9996 7.16973L9.52965 4.69973C9.13965 4.30973 8.50965 4.30973 8.11965 4.69973C7.72965 5.08973 7.72965 5.72973 8.11965 6.11973L11.2896 9.28973C11.6796 9.67973 12.3096 9.67973 12.6996 9.28973L15.8696 6.11973C16.2696 5.72973 16.2696 5.08973 15.8796 4.69973Z" fill="#A8B0B9"/>
</svg>
