<svg width="24" height="24" viewBox="0 0 24 24" fill="none" xmlns="http://www.w3.org/2000/svg">
<path opacity="0.3" d="M12.0004 10.0999C13.1602 10.0999 14.1004 9.1597 14.1004 7.9999C14.1004 6.8401 13.1602 5.8999 12.0004 5.8999C10.8406 5.8999 9.90039 6.8401 9.90039 7.9999C9.90039 9.1597 10.8406 10.0999 12.0004 10.0999Z" fill="#A8B0B9"/>
<path opacity="0.3" d="M12.0004 14.8999C9.03039 14.8999 5.90039 16.3599 5.90039 16.9999V18.0999H18.1004V16.9999C18.1004 16.3599 14.9704 14.8999 12.0004 14.8999Z" fill="#A8B0B9"/>
<path d="M12 13C9.33 13 4 14.34 4 17V20H20V17C20 14.34 14.67 13 12 13ZM18.1 18.1H5.9V17C5.9 16.36 9.03 14.9 12 14.9C14.97 14.9 18.1 16.36 18.1 17V18.1ZM12 12C14.21 12 16 10.21 16 8C16 5.79 14.21 4 12 4C9.79 4 8 5.79 8 8C8 10.21 9.79 12 12 12ZM12 5.9C13.16 5.9 14.1 6.84 14.1 8C14.1 9.16 13.16 10.1 12 10.1C10.84 10.1 9.9 9.16 9.9 8C9.9 6.84 10.84 5.9 12 5.9Z" fill="#A8B0B9"/>
</svg>
