<svg width="24" height="24" viewBox="0 0 24 24" fill="none" xmlns="http://www.w3.org/2000/svg">
<path opacity="0.3" d="M4 6.3H20V3.6H18V1.8H20C21.1046 1.8 22 2.60589 22 3.6V16.2C22 17.1941 21.1046 18 20 18H4C2.89543 18 2 17.1941 2 16.2V3.6C2 2.60589 2.89543 1.8 4 1.8H6V3.6H4V6.3ZM4 8.1V16.2H20V8.1H4ZM9 3.6C9 4.09706 8.55228 4.5 8 4.5C7.44772 4.5 7 4.09706 7 3.6V0.9C7 0.402944 7.44772 0 8 0C8.55228 0 9 0.402944 9 0.9V3.6ZM17 3.6C17 4.09706 16.5523 4.5 16 4.5C15.4477 4.5 15 4.09706 15 3.6V0.9C15 0.402944 15.4477 0 16 0C16.5523 0 17 0.402944 17 0.9V3.6ZM10 1.8H14V3.6H10V1.8ZM9 9H11V10.8H9V9ZM13 9H15V10.8H13V9ZM17 9H19V10.8H17V9ZM5 12.6H7V14.4H5V12.6ZM9 12.6H11V14.4H9V12.6ZM13 12.6H15V14.4H13V12.6ZM17 12.6H19V14.4H17V12.6Z" fill="#A8B0B9"/>
<path d="M4 6.3H20V3.6H18V1.8H20C21.1046 1.8 22 2.60589 22 3.6V16.2C22 17.1941 21.1046 18 20 18H4C2.89543 18 2 17.1941 2 16.2V3.6C2 2.60589 2.89543 1.8 4 1.8H6V3.6H4V6.3ZM4 8.1V16.2H20V8.1H4ZM9 3.6C9 4.09706 8.55228 4.5 8 4.5C7.44772 4.5 7 4.09706 7 3.6V0.9C7 0.402944 7.44772 0 8 0C8.55228 0 9 0.402944 9 0.9V3.6ZM17 3.6C17 4.09706 16.5523 4.5 16 4.5C15.4477 4.5 15 4.09706 15 3.6V0.9C15 0.402944 15.4477 0 16 0C16.5523 0 17 0.402944 17 0.9V3.6ZM10 1.8H14V3.6H10V1.8ZM9 9H11V10.8H9V9ZM13 9H15V10.8H13V9ZM17 9H19V10.8H17V9ZM5 12.6H7V14.4H5V12.6ZM9 12.6H11V14.4H9V12.6ZM13 12.6H15V14.4H13V12.6ZM17 12.6H19V14.4H17V12.6Z" fill="#A8B0B9"/>
</svg>
