<svg width="24" height="24" viewBox="0 0 24 24" fill="none" xmlns="http://www.w3.org/2000/svg">
<path d="M20.42 9.35976L12.7101 2.26627C12.6171 2.1819 12.5065 2.11493 12.3846 2.06923C12.2628 2.02353 12.1321 2 12.0001 2C11.868 2 11.7373 2.02353 11.6155 2.06923C11.4936 2.11493 11.383 2.1819 11.2901 2.26627L3.58011 9.36877C3.39355 9.53806 3.24621 9.73904 3.14664 9.96002C3.04708 10.181 2.99727 10.4176 3.00012 10.656V18.1996C2.99934 18.6604 3.19489 19.104 3.54649 19.4389C3.89809 19.7738 4.37897 19.9747 4.8901 20H19.11C19.6211 19.9747 20.102 19.7738 20.4536 19.4389C20.8052 19.104 21.0008 18.6604 21 18.1996V10.656C21.0008 10.1726 20.7928 9.70776 20.42 9.35976ZM10.0001 18.1996V12.7985H14V18.1996H10.0001ZM19 18.1996H16V11.8983C16 11.6596 15.8947 11.4306 15.7071 11.2618C15.5196 11.0929 15.2653 10.9981 15 10.9981H9.00008C8.73486 10.9981 8.48051 11.0929 8.29297 11.2618C8.10544 11.4306 8.00008 11.6596 8.00008 11.8983V18.1996H5.0001V10.62L12.0001 4.18368L19 10.656V18.1996Z" fill="#A8B0B9"/>
</svg>
