<svg width="24" height="24" viewBox="0 0 24 24" fill="none" xmlns="http://www.w3.org/2000/svg">
<path d="M8.70047 15.9002L4.80047 12.0002L8.70047 8.10022C9.09047 7.71022 9.09047 7.09021 8.70047 6.70021C8.31047 6.31021 7.69047 6.31021 7.30047 6.70021L2.71047 11.2902C2.32047 11.6802 2.32047 12.3102 2.71047 12.7002L7.30047 17.3002C7.69047 17.6902 8.31047 17.6902 8.70047 17.3002C9.09047 16.9102 9.09047 16.2902 8.70047 15.9002ZM15.3005 15.9002L19.2005 12.0002L15.3005 8.10022C14.9105 7.71022 14.9105 7.09021 15.3005 6.70021C15.6905 6.31021 16.3105 6.31021 16.7005 6.70021L21.2905 11.2902C21.6805 11.6802 21.6805 12.3102 21.2905 12.7002L16.7005 17.3002C16.3105 17.6902 15.6905 17.6902 15.3005 17.3002C14.9105 16.9102 14.9105 16.2902 15.3005 15.9002Z" fill="#A8B0B9"/>
</svg>
