<svg width="8" height="11" viewBox="0 0 8 11" fill="none" xmlns="http://www.w3.org/2000/svg">
<path d="M6.8275 4.79312L2.5875 0.553123C2.49454 0.459394 2.38394 0.385 2.26208 0.334231C2.14022 0.283462 2.00951 0.257324 1.8775 0.257324C1.74549 0.257324 1.61478 0.283462 1.49292 0.334231C1.37107 0.385 1.26046 0.459394 1.1675 0.553123C0.981251 0.740485 0.876709 0.993937 0.876709 1.25812C0.876709 1.52231 0.981251 1.77576 1.1675 1.96312L4.7075 5.50312L1.1675 9.04312C0.981251 9.23048 0.876709 9.48394 0.876709 9.74812C0.876709 10.0123 0.981251 10.2658 1.1675 10.4531C1.26094 10.5458 1.37176 10.6191 1.4936 10.6689C1.61543 10.7187 1.74589 10.7439 1.8775 10.7431C2.00911 10.7439 2.13957 10.7187 2.26141 10.6689C2.38325 10.6191 2.49406 10.5458 2.5875 10.4531L6.8275 6.21312C6.92123 6.12016 6.99562 6.00956 7.04639 5.8877C7.09716 5.76584 7.1233 5.63513 7.1233 5.50312C7.1233 5.37111 7.09716 5.2404 7.04639 5.11855C6.99562 4.99669 6.92123 4.88609 6.8275 4.79312Z" fill="#6C6C6C"/>
</svg>
