<svg width="8" height="11" viewBox="0 0 8 11" fill="none" xmlns="http://www.w3.org/2000/svg">
<path d="M3.29251 5.47773L6.83251 1.93773C7.01876 1.75037 7.1233 1.49692 7.1233 1.23273C7.1233 0.968546 7.01876 0.715094 6.83251 0.527732C6.73954 0.434003 6.62894 0.359609 6.50708 0.30884C6.38522 0.258072 6.25452 0.231934 6.12251 0.231934C5.9905 0.231934 5.85979 0.258072 5.73793 0.30884C5.61607 0.359609 5.50547 0.434003 5.41251 0.527732L1.17251 4.76773C1.07878 4.86069 1.00438 4.9713 0.953616 5.09315C0.902847 5.21501 0.876709 5.34572 0.876709 5.47773C0.876709 5.60974 0.902847 5.74045 0.953616 5.86231C1.00438 5.98417 1.07878 6.09477 1.17251 6.18773L5.41251 10.4777C5.50595 10.5704 5.61676 10.6437 5.7386 10.6935C5.86044 10.7433 5.9909 10.7685 6.12251 10.7677C6.25411 10.7685 6.38458 10.7433 6.50641 10.6935C6.62825 10.6437 6.73907 10.5704 6.83251 10.4777C7.01876 10.2904 7.1233 10.0369 7.1233 9.77273C7.1233 9.50855 7.01876 9.25509 6.83251 9.06773L3.29251 5.47773Z" fill="#6C6C6C"/>
</svg>
